<svg id="Capa_1" enable-background="new 0 0 512.001 512.001" height="120px" viewBox="0 0 512.001 512.001" width="120px" fill="#000" xmlns="http://www.w3.org/2000/svg">
<g style="fill:none; stroke:#ffffff; stroke-width: 6px;"><path d="m473.606 185.987c-5.464-7.283-13.698-5.969-14.416-6.111-3.058-13.027-13.885-23.417-27.544-25.446l-45.299-6.729c-4.526-.669-8.603 2.832-8.603 7.419v72.741c0 4.143 3.357 7.5 7.5 7.5s7.5-3.357 7.5-7.5v-32.983h44.627v55.829c0 7.41 6.028 13.438 13.438 13.438h46.19v12.298h-3.534c-4.143 0-7.5 3.357-7.5 7.5s3.357 7.5 7.5 7.5h3.534v26.97h-17.039c-4.22-15.421-18.348-26.791-35.089-26.791s-30.869 11.37-35.089 26.791h-17.038v-60.564c0-4.143-3.357-7.5-7.5-7.5s-7.5 3.357-7.5 7.5v32.983h-12.512v-128.497c0-8.115-6.602-14.717-14.717-14.717h-268.401c-4.143 0-7.5 3.357-7.5 7.5s3.357 7.5 7.5 7.5h268.119v128.212h-319.226v-128.211h21.12c4.143 0 7.5-3.357 7.5-7.5s-3.357-7.5-7.5-7.5h-21.403c-8.115 0-14.717 6.602-14.717 14.717v128.495h-8.507c-4.143 0-7.5 3.357-7.5 7.5v19.133c0 8.794 7.155 15.948 15.949 15.948h6.932v4.607h-15.381c-4.143 0-7.5 3.357-7.5 7.5s3.357 7.5 7.5 7.5h22.881c4.143 0 7.5-3.357 7.5-7.5v-12.107h8.141c2.621 17.504 17.755 30.972 35.978 30.972s33.357-13.468 35.978-30.972h28.792c4.143 0 7.5-3.357 7.5-7.5s-3.357-7.5-7.5-7.5h-29.68c-1.266-4.625-3.421-8.883-6.274-12.581h137.176c-2.852 3.698-5.008 7.956-6.274 12.581h-64.962c-4.143 0-7.5 3.357-7.5 7.5s3.357 7.5 7.5 7.5h64.074c2.621 17.504 17.755 30.972 35.978 30.972s33.357-13.468 35.978-30.972h96.111c2.621 17.504 17.755 30.972 35.978 30.972s33.356-13.468 35.977-30.972h17.228c7.678 0 13.924-6.246 13.924-13.923v-77.24c-.003-8.897-4.255-9.155-38.398-56.262zm-391.607 163.396c-11.79 0-21.382-9.592-21.382-21.381 0-.444.018-.884.045-1.321 0-.004 0-.008.001-.011.691-11.171 9.994-20.05 21.336-20.05s20.646 8.878 21.336 20.05c0 .004 0 .008.001.011.027.437.045.877.045 1.321 0 11.79-9.592 21.381-21.382 21.381zm-35.089-30.971h-30.96c-.523 0-.949-.426-.949-.948v-11.633h38.183c-2.853 3.698-5.009 7.956-6.274 12.581zm330.835-12.581v12.581h-65.849c-1.266-4.625-3.421-8.883-6.274-12.581zm-100.938 43.552c-11.79 0-21.382-9.592-21.382-21.381 0-.444.018-.884.045-1.321 0-.004 0-.008.001-.011.691-11.171 9.994-20.05 21.336-20.05s20.646 8.878 21.336 20.05c0 .004 0 .008.001.011.027.437.045.877.045 1.321-.001 11.79-9.592 21.381-21.382 21.381zm168.066 0c-11.79 0-21.382-9.592-21.382-21.381 0-11.79 9.592-21.382 21.382-21.382 11.789 0 21.381 9.592 21.381 21.382s-9.592 21.381-21.381 21.381zm-15.431-180.116c6.282.933 11.474 5.083 13.987 10.608h-50.684v-16.061zm22.93 79.877v-54.268h.188c.007 0 .013-.001.019-.001h8.804c.088 0 .172.042.226.114l35.336 47.09c.036.049.057.108.057.169v6.896z"/>
<path d="m71.977 275.063c4.143 0 7.5-3.357 7.5-7.5v-81.677c0-4.143-3.357-7.5-7.5-7.5s-7.5 3.357-7.5 7.5v81.677c0 4.143 3.357 7.5 7.5 7.5z"/>
<path d="m138.799 267.563v-81.677c0-4.143-3.357-7.5-7.5-7.5s-7.5 3.357-7.5 7.5v81.677c0 4.143 3.357 7.5 7.5 7.5s7.5-3.357 7.5-7.5z"/>
<path d="m257.442 267.563v-81.677c0-4.143-3.357-7.5-7.5-7.5s-7.5 3.357-7.5 7.5v81.677c0 4.143 3.357 7.5 7.5 7.5s7.5-3.357 7.5-7.5z"/>
<path d="m316.764 267.563v-81.677c0-4.143-3.357-7.5-7.5-7.5s-7.5 3.357-7.5 7.5v81.677c0 4.143 3.357 7.5 7.5 7.5s7.5-3.357 7.5-7.5z"/>
<path d="m156.387 258.687 4.729 4.857c9.426 9.685 24.915 9.905 34.611.468l25.39-24.713c7.392-7.194 8.268-19.728-.141-27.91l-25.25-24.577c-9.67-9.413-25.197-9.202-34.61.468l-4.729 4.858c-2.889 2.969-2.824 7.717.144 10.605l23.288 22.669-23.288 22.669c-2.969 2.889-3.033 7.637-.144 10.606zm39.416-27.9c1.45-1.411 2.269-3.35 2.269-5.374s-.818-3.963-2.269-5.374l-23.416-22.793c3.674-3.247 9.307-3.159 12.877.315l25.25 24.577c2.05 1.998 1.815 4.782.141 6.412l-25.39 24.713c-3.571 3.477-9.204 3.565-12.878.316z"/></g></svg>