<svg height="512" viewBox="0 0 512 512" width="512" xmlns="http://www.w3.org/2000/svg">
                      <g fill="none" fill-rule="evenodd" transform="translate(32 57)"><path d="m480 .2h-340.5c-75.1 0-138.8 34.8-138.8 87.7 0 49.5 91.5 55.4 131.4 56" stroke="#09388a" stroke-linecap="round" stroke-linejoin="round" stroke-width="2" style="stroke-dasharray: 678, 680; stroke-dashoffset: 0;"></path>
        
        <path d="m.9 91.5h67.2c64.7 0 58.1-71 102.1-71h309.8" stroke="#09388a" stroke-linecap="round" stroke-linejoin="round" stroke-width="2" style="stroke-dasharray: 509, 511; stroke-dashoffset: 0;"></path>
        
        <path d="m4.8 104.9c9.9 5.9 47.6 15.1 80.9 15.1h72.7" stroke="#09388a" stroke-linecap="round" stroke-linejoin="round" stroke-width="2" style="stroke-dasharray: 156, 158; stroke-dashoffset: 0;"></path>
        
        <path d="m24.4 37.7h73.1c2.8 0 4.5 3.2 2.9 5.5l-6.6 9.3c-1.5 2.1-4 3.4-6.6 3.4h-77.5" stroke="#09388a" stroke-linecap="round" stroke-linejoin="round" stroke-width="2" style="stroke-dasharray: 178, 180; stroke-dashoffset: 0;"></path>
        
        <path d="m480 93.6h-238c-6.9 0-12.5-5.6-12.5-12.5 0-3.9 3.2-7.1 7.1-7.1h243.4" stroke="#09388a" stroke-linecap="round" stroke-linejoin="round" stroke-width="2" style="stroke-dasharray: 513, 515; stroke-dashoffset: 0;"></path>
        
        <path stroke="#09388a" stroke-linecap="round" stroke-linejoin="round" stroke-width="2" d="M209.70000000000002,48.5A8.1,8.1 0,1,1 225.9,48.5A8.1,8.1 0,1,1 209.70000000000002,48.5" style="stroke-dasharray: 51, 53; stroke-dashoffset: 0;"></path>
        
        <path stroke="#09388a" stroke-linecap="round" stroke-linejoin="round" stroke-width="2" d="M241.5,48.5A8.1,8.1 0,1,1 257.7,48.5A8.1,8.1 0,1,1 241.5,48.5" style="stroke-dasharray: 51, 53; stroke-dashoffset: 0;"></path>
        
        <path stroke="#09388a" stroke-linecap="round" stroke-linejoin="round" stroke-width="2" d="M273.4,48.5A8.1,8.1 0,1,1 289.6,48.5A8.1,8.1 0,1,1 273.4,48.5" style="stroke-dasharray: 51, 53; stroke-dashoffset: 0;"></path><path stroke="#09388a" stroke-linecap="round" stroke-linejoin="round" stroke-width="2" d="M302.29999999999995,48.5A8.1,8.1 0,1,1 318.5,48.5A8.1,8.1 0,1,1 302.29999999999995,48.5" style="stroke-dasharray: 51, 53; stroke-dashoffset: 0;"></path>
        
        <path d="m180.3 88.3h-6.2c-5.8 0-10.5-4.7-10.5-10.5v-29.5c0-5.8 4.7-10.5 10.5-10.5h6.2c5.8 0 10.5 4.7 10.5 10.5v29.5c0 5.8-4.7 10.5-10.5 10.5z" stroke="#09388a" stroke-linecap="round" stroke-linejoin="round" stroke-width="2" style="stroke-dasharray: 138, 140; stroke-dashoffset: 0;"></path><path d="m185.7 65.3h-6.8" stroke="#09388a" stroke-linecap="round" stroke-linejoin="round" stroke-width="2" style="stroke-dasharray: 7, 9; stroke-dashoffset: 0;"></path>
        
        <path d="m44.6 37.7s-10.5 7.7-15.6 18.3" stroke="#09388a" stroke-linecap="round" stroke-linejoin="round" stroke-width="2" style="stroke-dasharray: 25, 27; stroke-dashoffset: 0;"></path>
        
        <path d="m74.2 37.7s-11.4 8.7-14.2 18.3" stroke="#09388a" stroke-linecap="round" stroke-linejoin="round" stroke-width="2" style="stroke-dasharray: 24, 26; stroke-dashoffset: 0;"></path><path d="m199.2 281.7c6.1 0 11.5-3.1 14.7-7.8h-29.4c3.2 4.7 8.6 7.8 14.7 7.8z" stroke="#09388a" "="" style="stroke-dasharray: 65, 67; stroke-dashoffset: 0;"></path>
        
        <path d="m238.1 281.7c6.1 0 11.5-3.1 14.7-7.8h-29.4c3.2 4.7 8.6 7.8 14.7 7.8z" stroke="#09388a" style="stroke-dasharray: 65, 67; stroke-dashoffset: 0;"></path><g stroke="#09388a" stroke-linecap="round" stroke-linejoin="round">
        
        <path d="m264.5 120c-16.9 0-30.6 13.7-30.6 30.6v102.4l-9.2 20.7h-83.7l-9.3-20.7" stroke-width="2" style="stroke-dasharray: 280, 282; stroke-dashoffset: 0;"></path><path d="m224.8 120c-14.7 0-26.9 10.3-29.9 24.1h-.2" stroke-width="2" style="stroke-dasharray: 42, 44; stroke-dashoffset: 0;"></path><path d="m170.6 120h24.1v24.1h-24.1z" stroke-width="2" style="stroke-dasharray: 97, 99; stroke-dashoffset: 0;"></path><path d="m140.8 155.1h83.6v31.5h-83.6z" stroke-width="2" style="stroke-dasharray: 231, 233; stroke-dashoffset: 0;"></path><path d="m275.6 186.6h-28.9v-18.3c0-7.3 5.9-13.2 13.2-13.2h15.7z" stroke-width="2" style="stroke-dasharray: 116, 118; stroke-dashoffset: 0;"></path><path d="m166.1 201.1h33v12.7h-33z" stroke-width="2" style="stroke-dasharray: 92, 94; stroke-dashoffset: 0;"></path><path d="m141 230.2h21.2v16.5h-21.2z" stroke-width="2" style="stroke-dasharray: 76, 78; stroke-dashoffset: 0;"></path><path d="m203.4 230.2h21.2v16.5h-21.2z" stroke-width="2" style="stroke-dasharray: 76, 78; stroke-dashoffset: 0;"></path><path d="m182.6 155.1v31.5" stroke-width="2" style="stroke-dasharray: 32, 34; stroke-dashoffset: 0;"></path><path stroke-width="2" d="M141,207.4A6.5,6.5 0,1,1 154,207.4A6.5,6.5 0,1,1 141,207.4" style="stroke-dasharray: 41, 43; stroke-dashoffset: 0;"></path><path stroke-width="2.00003" transform="matrix(.16019757 -.98708497 .98708497 .16019757 -21.471539 389.565954)" d="M211.707681,207.40156A6.500099,6.500099 0,1,1 224.70787900000002,207.40156A6.500099,6.500099 0,1,1 211.707681,207.40156" style="stroke-dasharray: 41, 43; stroke-dashoffset: 0;"></path><path d="m131.7 223.7h189.4" stroke-width="2" style="stroke-dasharray: 190, 192; stroke-dashoffset: 0;"></path><path d="m224.6 273.8h31.7l9.6-20.7" stroke-width="2" style="stroke-dasharray: 55, 57; stroke-dashoffset: 0;"></path><path d="m283.1 155.1h29.8v58.7h-29.8z" stroke-width="2" style="stroke-dasharray: 177, 179; stroke-dashoffset: 0;"></path><path d="m248.4 192.4h9.6" stroke-width="2" style="stroke-dasharray: 10, 12; stroke-dashoffset: 0;"></path><path d="m480 135.8h-161l-15.8-15.8h-140.9c-16.9 0-30.6 13.7-30.6 30.6v102.4h138.8" stroke-width="2" style="stroke-dasharray: 614, 616; stroke-dashoffset: 0;"></path><path d="m381 135.6-14.9-14.9h-23.9l-15.1 15.1" stroke-width="2" style="stroke-dasharray: 67, 69; stroke-dashoffset: 0;"></path><path d="m425 135.8-15.1-15.1h-43.8" stroke-width="2" style="stroke-dasharray: 66, 68; stroke-dashoffset: 0;"></path><path d="m338.2 191.6h112.6" stroke-width="2" style="stroke-dasharray: 113, 115; stroke-dashoffset: 0;"></path><path d="m380 144.1h45.4v15.9h-45.4z" stroke-width="2" style="stroke-dasharray: 123, 125; stroke-dashoffset: 0;"></path><path d="m402.7 144.1v15.9" stroke-width="2" style="stroke-dasharray: 16, 18; stroke-dashoffset: 0;"></path><path d="m184.5 273.8c3.2 4.7 8.6 7.8 14.7 7.8s11.5-3.1 14.7-7.8" stroke-width="2" style="stroke-dasharray: 35, 37; stroke-dashoffset: 0;"></path><path d="m223.4 273.8c3.2 4.7 8.6 7.8 14.7 7.8s11.5-3.1 14.7-7.8" stroke-width="2" style="stroke-dasharray: 35, 37; stroke-dashoffset: 0;"></path><path d="m321.1 228.9v-14.9c0-2.7 2.2-4.9 4.9-4.9h108.1" stroke-width="2" style="stroke-dasharray: 131, 133; stroke-dashoffset: 0;"></path><path d="m347.5 346.8c-1.4 11-8.4 19.4-16.8 19.4h-11.9c-8.4 0-15.4-8.4-16.8-19.4z" stroke-width="2" style="stroke-dasharray: 114, 116; stroke-dashoffset: 0;"></path><path d="m382.9 346.8v.1" stroke-width="2" style="stroke-dasharray: 1, 3; stroke-dashoffset: 0;"></path><path d="m421.4 331.9h43.8" stroke-width="2" style="stroke-dasharray: 44, 46; stroke-dashoffset: 0;"></path><path d="m464.2 350.1h-41.9" stroke-width="2" style="stroke-dasharray: 42, 44; stroke-dashoffset: 0;"></path><path d="m474.3 364.6c-1.9 1-4 1.6-6.2 1.6h-11.9c-7.5 0-13.9-6.7-16.2-16.1" stroke-width="2" style="stroke-dasharray: 43, 45; stroke-dashoffset: 0;"></path><path d="m382.9 346.8v.1" stroke-width="2" style="stroke-dasharray: 1, 3; stroke-dashoffset: 0;"></path><path d="m480.2 359.3c-1.9-2.6-3.3-5.7-4.1-9.2-.6-2.4-.9-4.9-.9-7.5 0-2.4.3-4.8.8-7 .8-3.7 2.3-7.1 4.3-9.7" stroke-width="2" style="stroke-dasharray: 36, 38; stroke-dashoffset: 0;"></path><path d="m423.4 310.6h.1" stroke-width="2" style="stroke-dasharray: 1, 3; stroke-dashoffset: 0;"></path><path d="m324.7 228.9v-.2c0-3.3 2.7-6 6-6h75.9c3.3 0 6 2.7 6 6v.2" stroke-width="2" style="stroke-dasharray: 96, 98; stroke-dashoffset: 0;"></path><path d="m279 250.8v15.8c0 1.3-1.1 2.4-2.4 2.4h-3.7c-1.3 0-2.4-1.1-2.4-2.4v-15.8c0-1.3 1.1-2.4 2.4-2.4h3.7c1.3 0 2.4 1.1 2.4 2.4z" stroke-width="2" style="stroke-dasharray: 55, 57; stroke-dashoffset: 0;"></path><path d="m281.2 267.2-2.2-3.8" stroke-width="2" style="stroke-dasharray: 5, 7; stroke-dashoffset: 0;"></path><path d="m382.9 346.9v-10.6c0-.2 0-.4 0-.7.1-2.2.4-4.3.9-6.3.2-.7.4-1.5.7-2.2.9-2.5 2.3-4.8 3.9-6.8.4-.6.9-1.1 1.4-1.6.2-.2.4-.4.6-.7.2-.2.5-.5.7-.7.3-.3.6-.5.9-.8 4.1-3.4 9.2-5.5 14.8-5.9h13.8 2.7" stroke-width="2" style="stroke-dasharray: 66, 68; stroke-dashoffset: 0;"></path><path d="m376.8 235.4h-85c2.8-4 7.4-6.5 12.5-6.5h85" stroke-width="2" style="stroke-dasharray: 185, 187; stroke-dashoffset: 0;"></path><path d="m279.5 281.7v37h88.7v-37" stroke-width="2" style="stroke-dasharray: 163, 165; stroke-dashoffset: 0;"></path><path d="m342.7 307.5c0 1.2-.4 2.2-1 3.1v.1c-.9 1.2-2.4 2-4.1 2h-39.4c-2.8 0-5.2-2.3-5.2-5.1v-13.8c0-2.8 2.3-5.2 5.2-5.2h39.4c2.8 0 5.2 2.3 5.2 5.2v13.7z" stroke-width="2" style="stroke-dasharray: 139, 141; stroke-dashoffset: 0;"></path><path d="m279.5 340.5v-21.8" stroke-width="2" style="stroke-dasharray: 22, 24; stroke-dashoffset: 0;"></path><path d="m298.4 235.4-1.5 4.8-8.9 28.8-1.1 3.6" stroke-width="2" style="stroke-dasharray: 39, 41; stroke-dashoffset: 0;"></path><path d="m279.5 272.6 1.2-3.8.5-1.6.5-1.6.4-1.3 7.5-24.1.4-1.3c.4-1.2 1.1-2.4 1.8-3.5" stroke-width="2" style="stroke-dasharray: 40, 42; stroke-dashoffset: 0;"></path><path d="m324.7 235.4-1.3 4.8-2.3 8.7-6.4 23.7" stroke-width="2" style="stroke-dasharray: 39, 41; stroke-dashoffset: 0;"></path><path d="m306.3 272.6 9.4-32.4 1.4-4.8" stroke-width="2" style="stroke-dasharray: 39, 41; stroke-dashoffset: 0;"></path><path d="m368.2 318.7v8.9 12.9 6.3h14.7" stroke-width="2" style="stroke-dasharray: 43, 45; stroke-dashoffset: 0;"></path><path d="m375.4 268.1 4.5-27c.1-.3.1-.6.3-.9 1-2.8 3.7-4.8 6.7-4.8h28.8m7.7 75.2v-81.7h-34.2c-5.1 0-9.7 2.5-12.5 6.5-1 1.4-1.7 3-2.2 4.8 0 .1-.1.3-.1.4l-6.3 32.1" stroke-width="2" style="stroke-dasharray: 235, 237; stroke-dashoffset: 0;"></path><path d="m423.5 310.6h-.1 10.8" stroke-width="2" style="stroke-dasharray: 11, 13; stroke-dashoffset: 0;"></path><path d="m378 350.1c2.3 9.4 8.7 16.1 16.2 16.1h11.9c-7.5 0-13.9-6.7-16.2-16.1-.3-1-.5-2.1-.6-3.2v-.1c0-.2-.1-.5-.1-.7-.1-.9-.2-1.8-.2-2.8 0-.2 0-.5 0-.7 0-1.3.1-2.5.2-3.7.1-1.1.3-2.2.5-3.3.2-.9.4-1.7.7-2.5.7-2.2 1.6-4.2 2.7-6 .1-.1.1-.2.2-.3 3.1-4.8 7.7-7.9 12.7-7.9.7 0 1.5.1 2.2.2" stroke-width="2" style="stroke-dasharray: 104, 106; stroke-dashoffset: 0;"></path><path d="m422.4 335.6c-.7-3.2-1.9-6-3.4-8.5-1.2-2-2.7-3.7-4.4-5-1.9-1.5-4.1-2.6-6.4-3-.7-.1-1.4-.2-2.2-.2-5.1 0-9.6 3-12.7 7.9-.1.1-.1.2-.2.3-1.1 1.8-2 3.8-2.7 6-.3.8-.5 1.6-.7 2.5-.2 1.1-.4 2.2-.5 3.3-.1 1.2-.2 2.4-.2 3.7v.7c0 .9.1 1.9.2 2.8 0 .2.1.5.1.7v.1c.1 1.1.3 2.2.6 3.2 2.3 9.4 8.7 16.1 16.2 16.1.7 0 1.5-.1 2.2-.2 6.6-1.2 12-7.5 14-15.9.3-1 .5-2.1.6-3.2v-.1c0-.2.1-.5.1-.7.1-1.1.2-2.3.2-3.5-.1-2.5-.3-4.8-.8-7z" stroke-width="2" style="stroke-dasharray: 129, 131; stroke-dashoffset: 0;"></path><path d="m415.2 346c0 .2-.1.5-.1.7v.1c-.2 1.1-.5 2.2-.9 3.2-1.6 4.5-4.6 7.5-8.1 7.5-3.4 0-6.5-3-8.1-7.5-.4-1-.7-2.1-.9-3.2v-.1c0-.2-.1-.5-.1-.7-.2-1.1-.3-2.3-.3-3.5 0-2.5.4-4.9 1-6.9 1.6-4.9 4.7-8.2 8.3-8.2s6.7 3.3 8.3 8.2c.1.3.2.6.2.9.5 1.9.8 3.9.8 6.1.1 1.1 0 2.3-.1 3.4z" stroke-width="2" style="stroke-dasharray: 78, 80; stroke-dashoffset: 0;"></path><path d="m342.7 318.7v8.9 1.3c0 3.5-2.8 6.3-6.3 6.3h-37c-3.5 0-6.3-2.8-6.3-6.3v-10.2" stroke-width="2" style="stroke-dasharray: 78, 80; stroke-dashoffset: 0;"></path><path d="m364.6 318.7c0 2.5-1 4.7-2.6 6.3-.9.9-2.1 1.6-3.3 2.1-.9.3-2 .5-3 .5h-12.9" stroke-width="2" style="stroke-dasharray: 27, 29; stroke-dashoffset: 0;"></path><path d="m293.1 327.6h-3.3c-4.9 0-8.9-4-8.9-8.9" stroke-width="2" style="stroke-dasharray: 18, 20; stroke-dashoffset: 0;"></path><path d="m378 350.1s-.3-1.6-.5-3.3" stroke-width="2" style="stroke-dasharray: 4, 6; stroke-dashoffset: 0;"></path><path d="m279.5 281.7v-9.1h88.7v9.1" stroke-width="2" style="stroke-dasharray: 107, 109; stroke-dashoffset: 0;"></path><path d="m389.7 268.9h-4.1c-1.2 0-2.2-1-2.2-2.2v-16.1c0-1.2 1-2.2 2.2-2.2h4.1c1.2 0 2.2 1 2.2 2.2v16.1c-.1 1.2-1 2.2-2.2 2.2z" stroke-width="2" style="stroke-dasharray: 55, 57; stroke-dashoffset: 0;"></path><path d="m379.3 273.8h-3.9c-.6 0-1-.5-1-1v-3.4c0-.6.5-1 1-1h3.9c.6 0 1 .5 1 1v3.4c0 .5-.5 1-1 1z" stroke-width="2" style="stroke-dasharray: 21, 23; stroke-dashoffset: 0;"></path><path d="m380.2 268.9 3.2-5.5" stroke-width="2" style="stroke-dasharray: 7, 9; stroke-dashoffset: 0;"></path><path d="m415.6 235.4v18c0 10.5-8.5 19-19 19h-16.2" stroke-width="2" style="stroke-dasharray: 65, 67; stroke-dashoffset: 0;"></path><path d="m480 310.6h-45.8v-101.6h4.8v95.3h22.1v-95.3h4.9v95.3h14" stroke-width="2" style="stroke-dasharray: 480, 482; stroke-dashoffset: 0;"></path><path d="m439 211h22.1" stroke-width="2" style="stroke-dasharray: 23, 25; stroke-dashoffset: 0;"></path><path d="m466 211h14" stroke-width="2" style="stroke-dasharray: 14, 16; stroke-dashoffset: 0;"></path><path d="m480 366.2c-4-.2-7.7-2.3-10.6-5.7-2.3-2.7-4.1-6.3-5.1-10.4-.6-2.4-.9-4.9-.9-7.5 0-2.4.3-4.8.8-7 1-4.3 2.8-8.1 5.2-10.9 2.7-3.2 6.7-5.2 10.6-5.6" stroke-width="2" style="stroke-dasharray: 64, 66; stroke-dashoffset: 0;"></path><path d="m368.2 346.8h-82.4c-3.5 0-6.3-2.8-6.3-6.3" stroke-width="2" style="stroke-dasharray: 93, 95; stroke-dashoffset: 0;"></path>
        
        <path d="m414.2 284.4h-6.7c-.6 0-1.1-.5-1.1-1.1s.5-1.1 1.1-1.1h6.7c.6 0 1.1.5 1.1 1.1-.1.6-.5 1.1-1.1 1.1z" stroke-width="2" style="stroke-dasharray: 21, 23; stroke-dashoffset: 0;"></path></g></g></svg>