<svg height="250" viewBox="0 0 512 512" width="250" xmlns="http://www.w3.org/2000/svg">
                      <g id="shipmodal" style="stroke-width:2;fill:none;fill-rule:evenodd;stroke-linecap:round;stroke-linejoin:round" transform="translate(59 142)">
                      <path d="m453 144.9h-224.3l-42.9-29.3h-181l-4.3 6.2s42.3 45.1 42.3 55.4-5.1 10.6-15.8 10.6-26.6-3.8-26.6 19.9 52.6 39.4 99.9 39.4h352.5" style="stroke-dasharray: 1065, 1067; stroke-dashoffset: 0;"></path><path d="M106.6,151.9A4.9,4.9 0,1,1 116.4,151.9A4.9,4.9 0,1,1 106.6,151.9" style="stroke-dasharray: 31, 33; stroke-dashoffset: 0;"></path><path d="m108.1 114.4v-20.7h-7.6v20.7" style="stroke-dasharray: 49, 51; stroke-dashoffset: 0;"></path><path d="m328.6 144.1v-17h-15.7v17" style="stroke-dasharray: 50, 52; stroke-dashoffset: 0;"></path><path d="m328.6 127.1v-64.3h-15.7v64.3" style="stroke-dasharray: 145, 147; stroke-dashoffset: 0;"></path><path d="m312.9 48.9h15.7v13.9h-15.7z" style="stroke-dasharray: 60, 62; stroke-dashoffset: 0;"></path><path d="m103.6 93.7v-45.8h4.5v45.8" style="stroke-dasharray: 97, 99; stroke-dashoffset: 0;"></path><path d="m320.7 54.9-7.8 7.9" style="stroke-dasharray: 12, 14; stroke-dashoffset: 0;"></path><path d="m328.6 62.8-7.9-7.9" style="stroke-dasharray: 12, 14; stroke-dashoffset: 0;"></path><path d="m312.9 62.8-5.4-7.9-5.1 7.9" style="stroke-dasharray: 19, 21; stroke-dashoffset: 0;"></path><path d="m312.9 48.9h-135.8v-8.4h143.6v8.4" style="stroke-dasharray: 297, 299; stroke-dashoffset: 0;"></path><path d="m140.1 40.5h37v5.7h-37z" style="stroke-dasharray: 86, 88; stroke-dashoffset: 0;"></path><path d="m313.9.1h14.7v7.5h-14.7z" style="stroke-dasharray: 45, 47; stroke-dashoffset: 0;"></path><path d="m313.9 40.5v-32.9h-11.5" style="stroke-dasharray: 45, 47; stroke-dashoffset: 0;"></path><path d="m328.6 7.6v41.3" style="stroke-dasharray: 42, 44; stroke-dashoffset: 0;"></path><path d="m302.4 15.3h25.7" style="stroke-dasharray: 26, 28; stroke-dashoffset: 0;"></path><path d="m302.4.1-146.5 40.4" style="stroke-dasharray: 152, 154; stroke-dashoffset: 0;"></path><path d="m41.1 184.6h411.9" style="stroke-dasharray: 412, 414; stroke-dashoffset: 0;"></path><path d="m128.2 83.2v-16.2h37.3" style="stroke-dasharray: 54, 56; stroke-dashoffset: 0;"></path><path d="m212.9 69.3v-16.2h37.3" style="stroke-dasharray: 54, 56; stroke-dashoffset: 0;"></path><path d="m250.2 69.3v-16.2h37.3v16.2" style="stroke-dasharray: 70, 72; stroke-dashoffset: 0;"></path><path d="m212.9 85.5v-16.2h37.3" style="stroke-dasharray: 54, 56; stroke-dashoffset: 0;"></path><path d="m250.2 85.5v-16.2h37.3v16.2" style="stroke-dasharray: 70, 72; stroke-dashoffset: 0;"></path><path d="m212.9 101.7v-16.2h37.3" style="stroke-dasharray: 54, 56; stroke-dashoffset: 0;"></path><path d="m250.2 101.7v-16.2h37.3v16.2" style="stroke-dasharray: 70, 72; stroke-dashoffset: 0;"></path><path d="m212.9 117.9v-16.2h37.3" style="stroke-dasharray: 54, 56; stroke-dashoffset: 0;"></path><path d="m250.2 117.9v-16.2h37.3v16.2" style="stroke-dasharray: 70, 72; stroke-dashoffset: 0;"></path><path d="m212.9 134.1v-16.2h37.3" style="stroke-dasharray: 54, 56; stroke-dashoffset: 0;"></path><path d="m250.2 134.1v-16.2h37.3v16.2" style="stroke-dasharray: 70, 72; stroke-dashoffset: 0;"></path><path d="m212.9 134.1h37.3" style="stroke-dasharray: 38, 40; stroke-dashoffset: 0;"></path><path d="m250.2 144.9v-10.8h37.3v10.8" style="stroke-dasharray: 59, 61; stroke-dashoffset: 0;"></path><path d="m128.2 99.4v-16.2h37.3" style="stroke-dasharray: 54, 56; stroke-dashoffset: 0;"></path><path d="m128.2 115.6v-16.2h37.3" style="stroke-dasharray: 54, 56; stroke-dashoffset: 0;"></path><path d="m165.5 115.6v-16.2h37.2v16.2h-16.8" style="stroke-dasharray: 87, 89; stroke-dashoffset: 0;"></path><path d="m212.9 53.1h-11.6v13.9" style="stroke-dasharray: 26, 28; stroke-dashoffset: 0;"></path><path d="m128.2 67h-11.7v48.6" style="stroke-dasharray: 61, 63; stroke-dashoffset: 0;"></path><path d="m212.9 85.5h-10.2" style="stroke-dasharray: 11, 13; stroke-dashoffset: 0;"></path><path d="m212.9 101.7h-10.2" style="stroke-dasharray: 11, 13; stroke-dashoffset: 0;"></path><path d="m212.9 117.9h-10.2" style="stroke-dasharray: 11, 13; stroke-dashoffset: 0;"></path><path d="m219.2 58.6v5.1" style="stroke-dasharray: 6, 8; stroke-dashoffset: 0;"></path><path d="m227.1 58.6v5.1" style="stroke-dasharray: 6, 8; stroke-dashoffset: 0;"></path><path d="m235.1 58.6v5.1" style="stroke-dasharray: 6, 8; stroke-dashoffset: 0;"></path><path d="m243 58.6v5.1" style="stroke-dasharray: 6, 8; stroke-dashoffset: 0;"></path><path d="m172.2 72.5v5.1" style="stroke-dasharray: 6, 8; stroke-dashoffset: 0;"></path><path d="m180.1 72.5v5.1" style="stroke-dasharray: 6, 8; stroke-dashoffset: 0;"></path><path d="m188.1 72.5v5.1" style="stroke-dasharray: 6, 8; stroke-dashoffset: 0;"></path><path d="m196 72.5v5.1" style="stroke-dasharray: 6, 8; stroke-dashoffset: 0;"></path><path d="m134.9 72.5v5.1" style="stroke-dasharray: 6, 8; stroke-dashoffset: 0;"></path><path d="m142.8 72.5v5.1" style="stroke-dasharray: 6, 8; stroke-dashoffset: 0;"></path><path d="m150.8 72.5v5.1" style="stroke-dasharray: 6, 8; stroke-dashoffset: 0;"></path><path d="m158.7 72.5v5.1" style="stroke-dasharray: 6, 8; stroke-dashoffset: 0;"></path><path d="m172.2 88.8v5.1" style="stroke-dasharray: 6, 8; stroke-dashoffset: 0;"></path><path d="m180.1 88.8v5.1" style="stroke-dasharray: 6, 8; stroke-dashoffset: 0;"></path><path d="m188.1 88.8v5.1" style="stroke-dasharray: 6, 8; stroke-dashoffset: 0;"></path><path d="m196 88.8v5.1" style="stroke-dasharray: 6, 8; stroke-dashoffset: 0;"></path><path d="m134.9 88.8v5.1" style="stroke-dasharray: 6, 8; stroke-dashoffset: 0;"></path><path d="m142.8 88.8v5.1" style="stroke-dasharray: 6, 8; stroke-dashoffset: 0;"></path><path d="m150.8 88.8v5.1" style="stroke-dasharray: 6, 8; stroke-dashoffset: 0;"></path><path d="m158.7 88.8v5.1" style="stroke-dasharray: 6, 8; stroke-dashoffset: 0;"></path><path d="m172.2 105v5.1" style="stroke-dasharray: 6, 8; stroke-dashoffset: 0;"></path><path d="m180.1 105v5.1" style="stroke-dasharray: 6, 8; stroke-dashoffset: 0;"></path><path d="m188.1 105v5.1" style="stroke-dasharray: 6, 8; stroke-dashoffset: 0;"></path><path d="m196 105v5.1" style="stroke-dasharray: 6, 8; stroke-dashoffset: 0;"></path><path d="m134.9 105v5.1" style="stroke-dasharray: 6, 8; stroke-dashoffset: 0;"></path><path d="m142.8 105v5.1" style="stroke-dasharray: 6, 8; stroke-dashoffset: 0;"></path><path d="m150.8 105v5.1" style="stroke-dasharray: 6, 8; stroke-dashoffset: 0;"></path><path d="m158.7 105v5.1" style="stroke-dasharray: 6, 8; stroke-dashoffset: 0;"></path><path d="m219.2 75.1v5" style="stroke-dasharray: 5, 7; stroke-dashoffset: 0;"></path><path d="m227.1 75.1v5" style="stroke-dasharray: 5, 7; stroke-dashoffset: 0;"></path><path d="m235.1 75.1v5" style="stroke-dasharray: 5, 7; stroke-dashoffset: 0;"></path><path d="m243 75.1v5" style="stroke-dasharray: 5, 7; stroke-dashoffset: 0;"></path><path d="m219.2 90.9v5.1" style="stroke-dasharray: 6, 8; stroke-dashoffset: 0;"></path><path d="m227.1 90.9v5.1" style="stroke-dasharray: 6, 8; stroke-dashoffset: 0;"></path><path d="m235.1 90.9v5.1" style="stroke-dasharray: 6, 8; stroke-dashoffset: 0;"></path><path d="m243 90.9v5.1" style="stroke-dasharray: 6, 8; stroke-dashoffset: 0;"></path><path d="m219.2 106.9v5.1" style="stroke-dasharray: 6, 8; stroke-dashoffset: 0;"></path><path d="m227.1 106.9v5.1" style="stroke-dasharray: 6, 8; stroke-dashoffset: 0;"></path><path d="m235.1 106.9v5.1" style="stroke-dasharray: 6, 8; stroke-dashoffset: 0;"></path><path d="m243 106.9v5.1" style="stroke-dasharray: 6, 8; stroke-dashoffset: 0;"></path><path d="m219.2 123.4v5.1" style="stroke-dasharray: 6, 8; stroke-dashoffset: 0;"></path><path d="m227.1 123.4v5.1" style="stroke-dasharray: 6, 8; stroke-dashoffset: 0;"></path><path d="m235.1 123.4v5.1" style="stroke-dasharray: 6, 8; stroke-dashoffset: 0;"></path><path d="m243 123.4v5.1" style="stroke-dasharray: 6, 8; stroke-dashoffset: 0;"></path><path d="m227.1 139.1v4.8" style="stroke-dasharray: 5, 7; stroke-dashoffset: 0;"></path><path d="m235.1 139.1v5" style="stroke-dasharray: 5, 7; stroke-dashoffset: 0;"></path><path d="m243 139.1v5" style="stroke-dasharray: 5, 7; stroke-dashoffset: 0;"></path><path d="m256.5 58.6v5.1" style="stroke-dasharray: 6, 8; stroke-dashoffset: 0;"></path><path d="m264.5 58.6v5.1" style="stroke-dasharray: 6, 8; stroke-dashoffset: 0;"></path><path d="m272.4 58.6v5.1" style="stroke-dasharray: 6, 8; stroke-dashoffset: 0;"></path><path d="m280.4 58.6v5.1" style="stroke-dasharray: 6, 8; stroke-dashoffset: 0;"></path><path d="m256.5 75.1v5" style="stroke-dasharray: 5, 7; stroke-dashoffset: 0;"></path><path d="m264.5 75.1v5" style="stroke-dasharray: 5, 7; stroke-dashoffset: 0;"></path><path d="m272.4 75.1v5" style="stroke-dasharray: 5, 7; stroke-dashoffset: 0;"></path><path d="m280.4 75.1v5" style="stroke-dasharray: 5, 7; stroke-dashoffset: 0;"></path><path d="m256.5 90.9v5.1" style="stroke-dasharray: 6, 8; stroke-dashoffset: 0;"></path><path d="m264.5 90.9v5.1" style="stroke-dasharray: 6, 8; stroke-dashoffset: 0;"></path><path d="m272.4 90.9v5.1" style="stroke-dasharray: 6, 8; stroke-dashoffset: 0;"></path><path d="m280.4 90.9v5.1" style="stroke-dasharray: 6, 8; stroke-dashoffset: 0;"></path><path d="m256.5 106.9v5.1" style="stroke-dasharray: 6, 8; stroke-dashoffset: 0;"></path><path d="m264.5 106.9v5.1" style="stroke-dasharray: 6, 8; stroke-dashoffset: 0;"></path><path d="m272.4 106.9v5.1" style="stroke-dasharray: 6, 8; stroke-dashoffset: 0;"></path><path d="m280.4 106.9v5.1" style="stroke-dasharray: 6, 8; stroke-dashoffset: 0;"></path><path d="m256.5 123.4v5.1" style="stroke-dasharray: 6, 8; stroke-dashoffset: 0;"></path><path d="m264.5 123.4v5.1" style="stroke-dasharray: 6, 8; stroke-dashoffset: 0;"></path><path d="m272.4 123.4v5.1" style="stroke-dasharray: 6, 8; stroke-dashoffset: 0;"></path><path d="m280.4 123.4v5.1" style="stroke-dasharray: 6, 8; stroke-dashoffset: 0;">

                    </path><path d="m256.5 139.5v5.1" style="stroke-dasharray: 6, 8; stroke-dashoffset: 0;"></path>
                    <path d="m264.5 139.5v5.1" style="stroke-dasharray: 6, 8; stroke-dashoffset: 0;"></path>
                    <path d="m272.4 139.5v5.1" style="stroke-dasharray: 6, 8; stroke-dashoffset: 0;"></path>
                    <path d="m280.4 139.5v5.1" style="stroke-dasharray: 6, 8; stroke-dashoffset: 0;"></path>
                    <path d="m128.2 83.2h-11.7" style="stroke-dasharray: 12, 14; stroke-dashoffset: 0;"></path>
                    <path d="m128.2 99.4h-11.7" style="stroke-dasharray: 12, 14; stroke-dashoffset: 0;"></path>
                    <path d="m355.1 53.1h-11.6v91.8" style="stroke-dasharray: 104, 106; stroke-dashoffset: 0;"></path>
                    <path d="m355.1 69.3h-11.6" style="stroke-dasharray: 12, 14; stroke-dashoffset: 0;"></path>
                    <path d="m355.1 85.5h-11.6" style="stroke-dasharray: 12, 14; stroke-dashoffset: 0;"></path>
                    <path d="m355.1 101.7h-11.6" style="stroke-dasharray: 12, 14; stroke-dashoffset: 0;"></path>
                    <path d="m355.1 117.9h-11.6" style="stroke-dasharray: 12, 14; stroke-dashoffset: 0;"></path>
                    <path d="m343.5 134.1h11.6v10.8" style="stroke-dasharray: 23, 25; stroke-dashoffset: 0;"></path>
                    <path d="m302.4 48.9v96" style="stroke-dasharray: 96, 98; stroke-dashoffset: 0;"></path>
                    <path d="m313.9.1h-11.5v40.4" style="stroke-dasharray: 52, 54; stroke-dashoffset: 0;"></path>
                    <path d="m312.9 127.1h-4.8-5.7" style="stroke-dasharray: 11, 13; stroke-dashoffset: 0;"></path><path d="m307.5 54.9v-6" style="stroke-dasharray: 6, 8; stroke-dashoffset: 0;"></path><path d="m103.6 47.9h-3.1v45.8h-3.7v21.9" style="stroke-dasharray: 75, 77; stroke-dashoffset: 0;"></path><path d="m140.1 46.2h-4.6v-5.7h4.6" style="stroke-dasharray: 15, 17; stroke-dashoffset: 0;"></path><path d="m177.1 48.9h-7.7v-2.7" style="stroke-dasharray: 11, 13; stroke-dashoffset: 0;"></path><path d="m313.9.1-144.5 40.4" style="stroke-dasharray: 151, 153; stroke-dashoffset: 0;"></path><path d="m.5 121.8h194.4" style="stroke-dasharray: 195, 197; stroke-dashoffset: 0;"></path><path d="m202.7 99.4v-16.2h-37.2v16.2" style="stroke-dasharray: 70, 72; stroke-dashoffset: 0;"></path><path d="m202.7 83.2v-16.2h-37.2v16.2" style="stroke-dasharray: 70, 72; stroke-dashoffset: 0;"></path><path d="m202.7 116.1v11.1" style="stroke-dasharray: 12, 14; stroke-dashoffset: 0;"></path><path d="m212.9 69.3h-9.9" style="stroke-dasharray: 10, 12; stroke-dashoffset: 0;"></path><path d="m355.1 69.3v-16.2h37.3" style="stroke-dasharray: 54, 56; stroke-dashoffset: 0;"></path><path d="m392.4 69.3v-16.2h37.3v16.2" style="stroke-dasharray: 70, 72; stroke-dashoffset: 0;"></path><path d="m355.1 85.5v-16.2h37.3" style="stroke-dasharray: 54, 56; stroke-dashoffset: 0;"></path><path d="m392.4 85.5v-16.2h37.3v16.2" style="stroke-dasharray: 70, 72; stroke-dashoffset: 0;"></path><path d="m355.1 101.7v-16.2h37.3" style="stroke-dasharray: 54, 56; stroke-dashoffset: 0;"></path><path d="m392.4 101.7v-16.2h37.3v16.2" style="stroke-dasharray: 70, 72; stroke-dashoffset: 0;"></path><path d="m355.1 117.9v-16.2h37.3" style="stroke-dasharray: 54, 56; stroke-dashoffset: 0;"></path><path d="m392.4 117.9v-16.2h37.3v16.2" style="stroke-dasharray: 70, 72; stroke-dashoffset: 0;"></path><path d="m355.1 134.1v-16.2h37.3" style="stroke-dasharray: 54, 56; stroke-dashoffset: 0;"></path><path d="m392.4 134.1v-16.2h37.3v16.2" style="stroke-dasharray: 70, 72; stroke-dashoffset: 0;"></path><path d="m355.1 134.1h37.3" style="stroke-dasharray: 38, 40; stroke-dashoffset: 0;"></path><path d="m392.4 144.9v-10.8h37.3v10.8" style="stroke-dasharray: 59, 61; stroke-dashoffset: 0;"></path><path d="m361.4 58.6v5.1" style="stroke-dasharray: 6, 8; stroke-dashoffset: 0;"></path><path d="m369.3 58.6v5.1" style="stroke-dasharray: 6, 8; stroke-dashoffset: 0;"></path><path d="m377.3 58.6v5.1" style="stroke-dasharray: 6, 8; stroke-dashoffset: 0;"></path><path d="m385.2 58.6v5.1" style="stroke-dasharray: 6, 8; stroke-dashoffset: 0;"></path><path d="m361.4 75.1v5" style="stroke-dasharray: 5, 7; stroke-dashoffset: 0;"></path><path d="m369.3 75.1v5" style="stroke-dasharray: 5, 7; stroke-dashoffset: 0;"></path><path d="m377.3 75.1v5" style="stroke-dasharray: 5, 7; stroke-dashoffset: 0;"></path><path d="m385.2 75.1v5" style="stroke-dasharray: 5, 7; stroke-dashoffset: 0;"></path><path d="m361.4 90.9v5.1" style="stroke-dasharray: 6, 8; stroke-dashoffset: 0;"></path><path d="m369.3 90.9v5.1" style="stroke-dasharray: 6, 8; stroke-dashoffset: 0;"></path><path d="m377.3 90.9v5.1" style="stroke-dasharray: 6, 8; stroke-dashoffset: 0;"></path><path d="m385.2 90.9v5.1" style="stroke-dasharray: 6, 8; stroke-dashoffset: 0;"></path><path d="m361.4 106.9v5.1" style="stroke-dasharray: 6, 8; stroke-dashoffset: 0;"></path><path d="m369.3 106.9v5.1" style="stroke-dasharray: 6, 8; stroke-dashoffset: 0;"></path><path d="m377.3 106.9v5.1" style="stroke-dasharray: 6, 8; stroke-dashoffset: 0;"></path><path d="m385.2 106.9v5.1" style="stroke-dasharray: 6, 8; stroke-dashoffset: 0;"></path><path d="m361.4 123.4v5.1" style="stroke-dasharray: 6, 8; stroke-dashoffset: 0;"></path><path d="m369.3 123.4v5.1" style="stroke-dasharray: 6, 8; stroke-dashoffset: 0;"></path><path d="m377.3 123.4v5.1" style="stroke-dasharray: 6, 8; stroke-dashoffset: 0;"></path><path d="m385.2 123.4v5.1" style="stroke-dasharray: 6, 8; stroke-dashoffset: 0;"></path><path d="m369.3 139.1v4.8" style="stroke-dasharray: 5, 7; stroke-dashoffset: 0;"></path><path d="m361.4 139.1v4.8" style="stroke-dasharray: 5, 7; stroke-dashoffset: 0;"></path><path d="m377.3 139.1v5" style="stroke-dasharray: 5, 7; stroke-dashoffset: 0;"></path><path d="m385.2 139.1v5" style="stroke-dasharray: 5, 7; stroke-dashoffset: 0;"></path><path d="m398.7 58.6v5.1" style="stroke-dasharray: 6, 8; stroke-dashoffset: 0;"></path><path d="m406.6 58.6v5.1" style="stroke-dasharray: 6, 8; stroke-dashoffset: 0;"></path><path d="m414.6 58.6v5.1" style="stroke-dasharray: 6, 8; stroke-dashoffset: 0;"></path><path d="m422.5 58.6v5.1" style="stroke-dasharray: 6, 8; stroke-dashoffset: 0;"></path><path d="m398.7 75.1v5" style="stroke-dasharray: 5, 7; stroke-dashoffset: 0;"></path><path d="m406.6 75.1v5" style="stroke-dasharray: 5, 7; stroke-dashoffset: 0;"></path><path d="m414.6 75.1v5" style="stroke-dasharray: 5, 7; stroke-dashoffset: 0;"></path><path d="m422.5 75.1v5" style="stroke-dasharray: 5, 7; stroke-dashoffset: 0;"></path><path d="m398.7 90.9v5.1" style="stroke-dasharray: 6, 8; stroke-dashoffset: 0;"></path><path d="m406.6 90.9v5.1" style="stroke-dasharray: 6, 8; stroke-dashoffset: 0;"></path><path d="m414.6 90.9v5.1" style="stroke-dasharray: 6, 8; stroke-dashoffset: 0;"></path><path d="m422.5 90.9v5.1" style="stroke-dasharray: 6, 8; stroke-dashoffset: 0;"></path><path d="m398.7 106.9v5.1" style="stroke-dasharray: 6, 8; stroke-dashoffset: 0;"></path><path d="m406.6 106.9v5.1" style="stroke-dasharray: 6, 8; stroke-dashoffset: 0;"></path><path d="m414.6 106.9v5.1" style="stroke-dasharray: 6, 8; stroke-dashoffset: 0;"></path><path d="m422.5 106.9v5.1" style="stroke-dasharray: 6, 8; stroke-dashoffset: 0;"></path><path d="m398.7 123.4v5.1" style="stroke-dasharray: 6, 8; stroke-dashoffset: 0;"></path><path d="m406.6 123.4v5.1" style="stroke-dasharray: 6, 8; stroke-dashoffset: 0;"></path><path d="m414.6 123.4v5.1" style="stroke-dasharray: 6, 8; stroke-dashoffset: 0;"></path><path d="m422.5 123.4v5.1" style="stroke-dasharray: 6, 8; stroke-dashoffset: 0;"></path><path d="m398.7 139.5v5.1" style="stroke-dasharray: 6, 8; stroke-dashoffset: 0;"></path><path d="m406.6 139.5v5.1" style="stroke-dasharray: 6, 8; stroke-dashoffset: 0;"></path><path d="m414.6 139.5v5.1" style="stroke-dasharray: 6, 8; stroke-dashoffset: 0;"></path><path d="m422.5 139.5v5.1" style="stroke-dasharray: 6, 8; stroke-dashoffset: 0;"></path><path d="m302.4 62.8h10.5" style="stroke-dasharray: 11, 13; stroke-dashoffset: 0;"></path><path d="m320.7 48.9v6.2" style="stroke-dasharray: 7, 9; stroke-dashoffset: 0;">
                      
                    </path></g></svg>