<svg id="Layer_1" data-name="Layer 1" xmlns="http://www.w3.org/2000/svg" xmlns:xlink="http://www.w3.org/1999/xlink" viewBox="0 0 425.2 425.2"><defs><style>.cls-1{fill:none;}.cls-2{fill:#fff;}.cls-3{clip-path:url(#clip-path);}.cls-4{fill:#425364;}</style><clipPath id="clip-path"><circle class="cls-1" cx="212.6" cy="212.6" r="198.43"/></clipPath></defs><title>Artboard 1 copy 11</title><circle class="cls-2" cx="212.6" cy="212.6" r="198.43"/><g class="cls-3"><path class="cls-4" d="M197.91,349.46a30.74,30.74,0,0,1-14.32-3.18,25.8,25.8,0,0,0-22.1,0,33.78,33.78,0,0,1-28.63,0,23,23,0,0,0-11-2.49,23,23,0,0,0-11,2.49,30.76,30.76,0,0,1-14.32,3.18,30.74,30.74,0,0,1-14.31-3.18,23,23,0,0,0-11-2.49,23,23,0,0,0-11,2.49,30.74,30.74,0,0,1-14.31,3.18,30.74,30.74,0,0,1-14.31-3.18,23,23,0,0,0-11-2.49,4,4,0,0,1,0-8A30.74,30.74,0,0,1,34.68,339a23,23,0,0,0,11,2.49,23,23,0,0,0,11-2.49,30.73,30.73,0,0,1,14.31-3.18A30.74,30.74,0,0,1,85.4,339a23,23,0,0,0,11,2.49A23,23,0,0,0,107.5,339a30.73,30.73,0,0,1,14.31-3.18A30.74,30.74,0,0,1,136.13,339a25.8,25.8,0,0,0,22.1,0,33.78,33.78,0,0,1,28.63,0,25.81,25.81,0,0,0,22.1,0,30.74,30.74,0,0,1,14.32-3.18,4,4,0,0,1,0,8,23,23,0,0,0-11.05,2.49A30.75,30.75,0,0,1,197.91,349.46Z"/><path class="cls-4" d="M197.91,321.79a30.76,30.76,0,0,1-14.32-3.18,25.79,25.79,0,0,0-22.1,0,33.78,33.78,0,0,1-28.63,0,23,23,0,0,0-11-2.49,23,23,0,0,0-11,2.49,30.74,30.74,0,0,1-14.32,3.18,30.74,30.74,0,0,1-14.31-3.18,23,23,0,0,0-11-2.49,23,23,0,0,0-11,2.49,30.73,30.73,0,0,1-14.31,3.18,30.73,30.73,0,0,1-14.31-3.18,23,23,0,0,0-11-2.49,4,4,0,0,1,0-8,30.73,30.73,0,0,1,14.31,3.18,23,23,0,0,0,11,2.49,23,23,0,0,0,11-2.49,30.73,30.73,0,0,1,14.31-3.18,30.74,30.74,0,0,1,14.31,3.18,23,23,0,0,0,11,2.49,23,23,0,0,0,11-2.49,30.74,30.74,0,0,1,14.31-3.18,30.74,30.74,0,0,1,14.31,3.18,25.79,25.79,0,0,0,22.1,0,33.78,33.78,0,0,1,28.63,0,25.8,25.8,0,0,0,22.1,0,30.75,30.75,0,0,1,14.32-3.18,4,4,0,0,1,0,8,23,23,0,0,0-11.05,2.49A30.75,30.75,0,0,1,197.91,321.79Z"/><path class="cls-4" d="M197.91,294.13a30.74,30.74,0,0,1-14.32-3.18,25.8,25.8,0,0,0-22.1,0,33.78,33.78,0,0,1-28.63,0,23,23,0,0,0-11-2.49,23,23,0,0,0-11,2.49,30.75,30.75,0,0,1-14.32,3.18,30.74,30.74,0,0,1-14.31-3.18,23,23,0,0,0-11-2.49,23,23,0,0,0-11,2.49,30.74,30.74,0,0,1-14.31,3.18,30.74,30.74,0,0,1-14.31-3.18,23,23,0,0,0-11-2.49,4,4,0,0,1,0-8,30.74,30.74,0,0,1,14.31,3.18,23,23,0,0,0,11,2.49,23,23,0,0,0,11-2.49,30.73,30.73,0,0,1,14.31-3.18,30.74,30.74,0,0,1,14.31,3.18,23,23,0,0,0,11,2.49,23,23,0,0,0,11.05-2.49,30.73,30.73,0,0,1,14.31-3.18,30.74,30.74,0,0,1,14.31,3.18,25.8,25.8,0,0,0,22.1,0,33.78,33.78,0,0,1,28.63,0,25.81,25.81,0,0,0,22.1,0,30.74,30.74,0,0,1,14.32-3.18,4,4,0,0,1,0,8,23,23,0,0,0-11.05,2.49A30.75,30.75,0,0,1,197.91,294.13Z"/><path class="cls-4" d="M271.16,263.4h-46.5a4,4,0,0,1-4-4.22l10-177.5a4,4,0,0,1,4-3.78h26.5a4,4,0,0,1,4,3.78l10,177.5a4,4,0,0,1-4,4.22Zm-42.27-8h38L257.37,85.9H238.44Z"/><path class="cls-2" d="M244.65,257.62V195a45.47,45.47,0,0,0-45.33-45.33h0A45.47,45.47,0,0,0,154,195v61.33"/><path class="cls-4" d="M244.65,261.63a4,4,0,0,1-4-4V195A41.33,41.33,0,0,0,158,195v61.33a4,4,0,0,1-8,0V195a49.33,49.33,0,0,1,98.67,0v62.67A4,4,0,0,1,244.65,261.63Z"/><path class="cls-4" d="M309,264H137a4,4,0,0,1,0-8H309a4,4,0,1,1,0,8Z"/><path class="cls-4" d="M113.15,288a4,4,0,0,1-4-4V228a4,4,0,0,1,4-4h38.5a4,4,0,1,1,0,8h-34.5v52A4,4,0,0,1,113.15,288Z"/><path class="cls-4" d="M354.39,199.89h-.2a4,4,0,0,1-4-4V177a29.59,29.59,0,0,0-29.55-29.55h-55.9a4,4,0,0,1,0-8h55.9A37.59,37.59,0,0,1,358.19,177v17.6a4,4,0,0,1-3.8,5.24Z"/><path class="cls-4" d="M333.11,192.89h-.2a4,4,0,0,1-3.8-5.24V173.7a5.13,5.13,0,0,0-5.13-5.13H265.75a4,4,0,0,1,0-8H324a13.14,13.14,0,0,1,13.13,13.13v15.19A4,4,0,0,1,333.11,192.89Z"/><path class="cls-4" d="M347.15,273.87A18.15,18.15,0,0,1,329,255.74c0-2,1-10,13.3-27.84a5.87,5.87,0,0,1,9.65,0c12.34,17.86,13.3,25.83,13.3,27.84A18.15,18.15,0,0,1,347.15,273.87Zm0-38.82c-5.28,8-10.13,17.09-10.13,20.69a10.13,10.13,0,1,0,20.25,0C357.28,252.13,352.43,243.05,347.15,235Z"/><rect class="cls-2" x="318.4" y="186.36" width="56.5" height="24.1"/><path class="cls-4" d="M374.9,214.46H318.4a4,4,0,0,1-4-4v-24.1a4,4,0,0,1,4-4h56.5a4,4,0,0,1,4,4v24.1A4,4,0,0,1,374.9,214.46Zm-52.5-8h48.5v-16.1H322.4Z"/></g></svg>